<svg width="16" height="19" viewBox="0 0 16 19" fill="none" xmlns="http://www.w3.org/2000/svg">
<path fill-rule="evenodd" clip-rule="evenodd" d="M11.4056 0C11.5643 1.06342 11.1285 2.10408 10.5539 2.84083C9.93852 3.63067 8.87861 4.242 7.85486 4.20992C7.66819 3.192 8.14827 2.14492 8.72986 1.43908C9.37094 0.660917 10.4676 0.0641667 11.4056 0ZM14.3217 15.6724C14.8514 14.8674 15.0479 14.4614 15.4592 13.5503C12.4737 12.4215 11.9936 8.20225 14.9488 6.58234C14.0464 5.45825 12.7805 4.80784 11.5859 4.80784C10.7234 4.80784 10.1326 5.0313 9.59576 5.2344C9.14859 5.40356 8.73878 5.55859 8.24044 5.55859C7.70198 5.55859 7.22493 5.38854 6.72527 5.21043C6.17587 5.01459 5.59913 4.809 4.88335 4.809C3.54052 4.809 2.11252 5.62392 1.20719 7.01809C-0.0662304 8.97867 0.149603 12.6677 2.2146 15.8107C2.9531 16.9353 3.93894 18.1994 5.22927 18.2111C5.76358 18.2163 6.11931 18.0578 6.50441 17.8862C6.94546 17.6897 7.42505 17.4761 8.2556 17.4714C9.0913 17.4667 9.56308 17.6827 9.99845 17.882C10.3736 18.0537 10.7217 18.213 11.2522 18.2082C12.5425 18.1965 13.5838 16.7965 14.3217 15.6724Z" fill="black"/>
</svg>
