<svg width="18" height="18" viewBox="0 0 18 18" fill="none" xmlns="http://www.w3.org/2000/svg">
<path d="M7.15857 18H1.38107C1.01279 18 0.690537 17.8619 0.414322 17.5857C0.138107 17.3095 0 16.9872 0 16.6189V3.22251C0 2.85422 0.118926 2.53197 0.356778 2.25575C0.594629 1.97954 0.797954 1.84143 0.966752 1.84143H5.61637C5.72379 1.30435 5.98849 0.863171 6.41049 0.517903C6.83248 0.172634 7.31969 0 7.87212 0C8.42455 0 8.91177 0.172634 9.33376 0.517903C9.75576 0.863171 10.0205 1.30435 10.1279 1.84143H14.7775C15.1458 1.84143 15.468 1.97954 15.7442 2.25575C16.0205 2.53197 16.1586 2.85422 16.1586 3.22251V7.89514H14.7775V3.22251H12.3376V6.21483H3.82097V3.22251H1.38107V16.6189H7.15857V18ZM11.509 17.4246L7.82609 13.7417L8.81586 12.7519L11.509 15.445L17.0102 9.94373L18 10.9335L11.509 17.4246ZM8.28645 3.13043C8.54732 3.13043 8.76598 3.0422 8.94246 2.86573C9.11893 2.68926 9.20716 2.47059 9.20716 2.20972C9.20716 1.94885 9.11893 1.73018 8.94246 1.55371C8.76598 1.37724 8.54732 1.289 8.28645 1.289C8.02558 1.289 7.80691 1.37724 7.63044 1.55371C7.45396 1.73018 7.36573 1.94885 7.36573 2.20972C7.36573 2.47059 7.45396 2.68926 7.63044 2.86573C7.80691 3.0422 8.02558 3.13043 8.28645 3.13043Z" fill="#262626"/>
</svg>
