<svg width="20" height="18" viewBox="0 0 20 18" fill="none" xmlns="http://www.w3.org/2000/svg">
<path d="M13.3 10.6C13.7167 10.6 14.0875 10.4375 14.4125 10.1125C14.7375 9.7875 14.9 9.40833 14.9 8.975C14.9 8.55833 14.7375 8.19167 14.4125 7.875C14.0875 7.55833 13.7167 7.4 13.3 7.4C12.8833 7.4 12.5125 7.55833 12.1875 7.875C11.8625 8.19167 11.7 8.55833 11.7 8.975C11.7 9.40833 11.8625 9.7875 12.1875 10.1125C12.5125 10.4375 12.8833 10.6 13.3 10.6ZM1.5 15.175V16.5V1.5V15.175ZM1.5 18C1.11667 18 0.770833 17.85 0.4625 17.55C0.154167 17.25 0 16.9 0 16.5V1.5C0 1.11667 0.154167 0.770833 0.4625 0.4625C0.770833 0.154167 1.11667 0 1.5 0H16.5C16.9 0 17.25 0.154167 17.55 0.4625C17.85 0.770833 18 1.11667 18 1.5V4.85H16.5V1.5H1.5V16.5H16.5V13.175H18V16.5C18 16.9 17.85 17.25 17.55 17.55C17.25 17.85 16.9 18 16.5 18H1.5ZM10.45 13.675C9.88333 13.675 9.43333 13.5083 9.1 13.175C8.76667 12.8417 8.6 12.4 8.6 11.85V6.175C8.6 5.60833 8.76667 5.1625 9.1 4.8375C9.43333 4.5125 9.88333 4.35 10.45 4.35H17.2C17.7667 4.35 18.2167 4.5125 18.55 4.8375C18.8833 5.1625 19.05 5.60833 19.05 6.175V11.85C19.05 12.4 18.8833 12.8417 18.55 13.175C18.2167 13.5083 17.7667 13.675 17.2 13.675H10.45ZM17.55 12.175V5.85H10.1V12.175H17.55Z" fill="#262626"/>
</svg>
