<svg width="19" height="19" viewBox="0 0 19 19" fill="none" xmlns="http://www.w3.org/2000/svg">
<path fill-rule="evenodd" clip-rule="evenodd" d="M17.9 9.69895C17.9 9.0785 17.8443 8.48191 17.7409 7.90918H9.5V11.2938H14.2091C14.0063 12.3876 13.3898 13.3143 12.4631 13.9348V16.1302H15.2909C16.9455 14.6069 17.9 12.3637 17.9 9.69895Z" fill="#4285F4"/>
<path fill-rule="evenodd" clip-rule="evenodd" d="M9.5 18.2501C11.8625 18.2501 13.8432 17.4666 15.2909 16.1302L12.4631 13.9348C11.6795 14.4598 10.6773 14.77 9.5 14.77C7.22101 14.77 5.29203 13.2308 4.60396 11.1626H1.68066V13.4296C3.12044 16.2893 6.07954 18.2501 9.5 18.2501Z" fill="#34A853"/>
<path fill-rule="evenodd" clip-rule="evenodd" d="M4.60398 11.1624C4.42898 10.6374 4.32955 10.0766 4.32955 9.49986C4.32955 8.92316 4.42898 8.36236 4.60398 7.83736V5.57031H1.68068C1.08807 6.75156 0.75 8.08793 0.75 9.49986C0.75 10.9118 1.08807 12.2482 1.68068 13.4294L4.60398 11.1624Z" fill="#FBBC05"/>
<path fill-rule="evenodd" clip-rule="evenodd" d="M9.5 4.23012C10.7847 4.23012 11.9381 4.6716 12.8449 5.53864L15.3546 3.02898C13.8392 1.61705 11.8585 0.75 9.5 0.75C6.07954 0.75 3.12044 2.7108 1.68066 5.57046L4.60396 7.83751C5.29203 5.76933 7.22101 4.23012 9.5 4.23012Z" fill="#EA4335"/>
</svg>
