<svg width="18" height="18" viewBox="0 0 18 18" xmlns="http://www.w3.org/2000/svg">
<path d="M0.9 16.605V5.535C0.69 5.505 0.4875 5.355 0.2925 5.085C0.0975 4.815 0 4.5225 0 4.2075V1.35C0 1.005 0.135 0.69375 0.405 0.41625C0.675 0.13875 0.99 0 1.35 0H16.65C16.995 0 17.3062 0.13875 17.5837 0.41625C17.8612 0.69375 18 1.005 18 1.35V4.2075C18 4.5225 17.9025 4.815 17.7075 5.085C17.5125 5.355 17.31 5.505 17.1 5.535V16.605C17.1 16.95 16.9613 17.2688 16.6838 17.5613C16.4062 17.8538 16.095 18 15.75 18H2.25C1.89 18 1.575 17.8538 1.305 17.5613C1.035 17.2688 0.9 16.95 0.9 16.605ZM2.25 5.5575V16.65H15.75V5.5575H2.25ZM16.65 4.2075V1.35H1.35V4.2075H16.65ZM6.3 10.2825H11.7V8.9325H6.3V10.2825ZM2.25 16.65V5.5575V16.65Z" />
</svg>
